<svg width="335" height="100" viewBox="0 0 335 100" fill="none" xmlns="http://www.w3.org/2000/svg">
<g clip-path="url(#clip0_391_728)">
<rect width="335" height="100" rx="16" fill="#161616"/>
<g clip-path="url(#clip1_391_728)">
<path d="M147.366 43.222C145.118 34.8329 140.695 31.1968 136.174 29.8672C136.662 29.0195 137.074 28.1274 137.348 27.2069C138.392 24.0603 138.298 20.3067 137.076 15.7474C135.854 11.1882 133.338 7.62727 129.784 5.77798C126.23 3.92869 121.593 3.86806 115.46 5.51133L93.1754 11.4824C90.3822 12.2309 88.2955 14.1583 87.1165 16.5591C87.0721 16.6362 86.967 16.7295 86.8618 16.8228L79.3528 29.846L79.3247 29.9839C79.3247 29.9839 79.3247 29.9839 79.3409 30.0447C78.2627 32.0928 77.8776 34.5415 78.5291 36.9732L89.9312 79.5264C91.2832 84.572 96.4428 87.5548 101.483 86.2044L126.803 79.4198C132.389 77.9229 136.261 75.1264 138.328 71.1844C138.328 71.1844 138.389 71.1681 138.434 71.091L146.52 57.0661C146.52 57.0661 146.581 57.0498 146.609 56.9119C148.539 52.9416 148.812 48.3729 147.443 43.2665L147.366 43.222Z" fill="#161616"/>
<path d="M129.774 31.9727C132.024 30.6532 133.592 28.7344 134.419 26.2325C135.245 23.7307 135.159 20.4959 134.117 16.6053C133.074 12.7148 131.183 10.0289 128.399 8.6248C125.599 7.15992 121.634 7.17975 116.351 8.59524L94.0669 14.5664C90.7273 15.4612 88.7279 18.9289 89.6237 22.2724L101.026 64.8256C101.922 68.1691 105.387 70.1725 108.727 69.2776L134.047 62.493C138.905 61.1914 142.129 58.8941 143.736 55.6619C145.327 52.3688 145.552 48.5946 144.379 44.2177C142.131 35.8287 137.306 31.9091 129.937 32.5806L129.774 31.9727Z" fill="#068BE3" stroke="#161616" stroke-width="2" stroke-linecap="round" stroke-linejoin="round"/>
<ellipse cx="6.19194" cy="6.19726" rx="6.19194" ry="6.19726" transform="matrix(-0.906124 0.423012 0.422299 0.906457 121.969 12.0244)" fill="white"/>
<ellipse cx="3.86996" cy="3.87329" rx="3.86996" ry="3.87329" transform="matrix(-0.906124 0.423012 0.422299 0.906457 122.95 14.1316)" fill="#161616"/>
<ellipse cx="6.19194" cy="6.19726" rx="6.19194" ry="6.19726" transform="matrix(-0.906124 0.423012 0.422299 0.906457 112.276 16.5474)" fill="white"/>
<ellipse cx="3.86996" cy="3.87329" rx="3.86996" ry="3.87329" transform="matrix(-0.906124 0.423012 0.422299 0.906457 113.257 18.6545)" fill="#161616"/>
</g>
<g clip-path="url(#clip2_391_728)">
<path d="M120.519 72.891C120.519 64.206 117.187 59.5488 113.164 57.0943C113.856 56.402 114.484 55.6468 114.987 54.8287C116.81 52.0595 117.69 48.4093 117.69 43.6892C117.69 38.9691 116.182 34.8784 113.227 32.1722C110.272 29.466 105.809 28.2073 99.4601 28.2073H76.3895C73.4978 28.2073 70.9833 29.5289 69.2231 31.5428C69.1603 31.6058 69.0345 31.6687 68.9088 31.7316L58.285 42.3676L58.2221 42.4935C58.2221 42.4935 58.2221 42.4935 58.2221 42.5564C56.6506 44.2556 55.6448 46.5213 55.6448 49.0387V93.093C55.6448 98.3166 59.8566 102.533 65.0742 102.533H91.2879C97.0713 102.533 101.535 100.834 104.552 97.5614C104.552 97.5614 104.615 97.5614 104.678 97.4985L116.119 86.0443C116.119 86.0443 116.182 86.0443 116.244 85.9185C119.136 82.5829 120.582 78.2404 120.582 72.9539L120.519 72.891Z" fill="#161616"/>
<path d="M106.438 57.472C108.952 56.7797 110.964 55.3322 112.41 53.1295C113.856 50.9268 114.61 47.78 114.61 43.7522C114.61 39.7244 113.479 36.6406 111.153 34.5637C108.827 32.4239 104.992 31.417 99.5231 31.417H76.4525C72.995 31.417 70.1662 34.2491 70.1662 37.7105V81.7648C70.1662 85.2262 72.995 88.0583 76.4525 88.0583H102.666C107.695 88.0583 111.404 86.6737 113.793 83.9675C116.182 81.1984 117.376 77.6111 117.376 73.0798C117.376 64.3948 113.73 59.36 106.438 58.1013V57.472Z" fill="#06E393" stroke="#161616" stroke-width="2" stroke-linecap="round" stroke-linejoin="round"/>
<ellipse cx="6.19194" cy="6.19726" rx="6.19194" ry="6.19726" transform="matrix(-0.984732 0.174076 0.173301 0.984869 104.062 36.1826)" fill="white"/>
<ellipse cx="3.86996" cy="3.87329" rx="3.86996" ry="3.87329" transform="matrix(-0.984732 0.174076 0.173301 0.984869 104.464 38.4719)" fill="#161616"/>
<ellipse cx="6.19194" cy="6.19726" rx="6.19194" ry="6.19726" transform="matrix(-0.984732 0.174076 0.173301 0.984869 93.5278 38.0427)" fill="white"/>
<ellipse cx="3.86996" cy="3.87329" rx="3.86996" ry="3.87329" transform="matrix(-0.984732 0.174076 0.173301 0.984869 93.9302 40.332)" fill="#161616"/>
</g>
<g clip-path="url(#clip3_391_728)">
<path d="M77.457 66.0451C79.7048 57.656 77.692 52.2952 74.4411 48.8831C75.2882 48.3934 76.0909 47.8266 76.7884 47.1665C79.266 44.9636 81.0608 41.6655 82.2825 37.1062C83.5042 32.547 83.1056 28.2051 80.9522 24.8264C78.7987 21.4477 74.8133 19.0768 68.6805 17.4335L46.396 11.4624C43.6029 10.714 40.832 11.3398 38.6106 12.8295C38.5336 12.874 38.3958 12.9023 38.2581 12.9305L25.2435 20.4544L25.1502 20.5597C25.1502 20.5597 25.1502 20.5597 25.1339 20.6205C23.1761 21.8551 21.6182 23.7832 20.9667 26.2149L9.56455 68.7681C8.21259 73.8137 11.1895 78.9767 16.2293 80.3271L41.5499 87.1117C47.1362 88.6086 51.8871 88.1224 55.6487 85.7423C55.6487 85.7423 55.7095 85.7586 55.7865 85.714L69.8022 77.6114C69.8022 77.6114 69.8629 77.6276 69.9562 77.5223C73.6126 75.0488 76.1331 71.2285 77.5014 66.1221L77.457 66.0451Z" fill="#161616"/>
<path d="M67.8464 47.5069C70.4544 47.489 72.7721 46.6115 74.7388 44.858C76.7055 43.1046 78.2486 40.2603 79.2911 36.3697C80.3335 32.4792 80.0387 29.2076 78.3296 26.5995C76.6367 23.9306 73.1934 21.9655 67.9107 20.55L45.6262 14.5789C42.2866 13.6841 38.8211 15.6875 37.9253 19.0309L26.5232 61.5842C25.6273 64.9276 27.6267 68.3953 30.9664 69.2902L56.2869 76.0748C61.1445 77.3764 65.0854 76.999 68.0932 75.0032C71.1173 72.9467 73.1994 69.7908 74.3722 65.4139C76.6201 57.0248 74.4014 51.218 67.6836 48.1148L67.8464 47.5069Z" fill="#E34506" stroke="#161616" stroke-width="2" stroke-linecap="round" stroke-linejoin="round"/>
<ellipse cx="6.19194" cy="6.19726" rx="6.19194" ry="6.19726" transform="matrix(-0.996232 -0.0867231 -0.0875072 0.996164 71.0613 26.3281)" fill="white"/>
<ellipse cx="3.86996" cy="3.87329" rx="3.86996" ry="3.87329" transform="matrix(-0.996232 -0.0867231 -0.0875072 0.996164 70.8574 28.6438)" fill="#161616"/>
<ellipse cx="6.19194" cy="6.19726" rx="6.19194" ry="6.19726" transform="matrix(-0.996232 -0.0867231 -0.0875072 0.996164 60.4048 25.3984)" fill="white"/>
<ellipse cx="3.86996" cy="3.87329" rx="3.86996" ry="3.87329" transform="matrix(-0.996232 -0.0867231 -0.0875072 0.996164 60.2009 27.7139)" fill="#161616"/>
</g>
<rect x="144" y="84" width="48" height="12" rx="6" fill="black" fill-opacity="0.4"/>
<circle cx="152" cy="90" r="2" fill="white"/>
<circle cx="160" cy="90" r="2" fill="white" fill-opacity="0.4"/>
<circle cx="168" cy="90" r="2" fill="white" fill-opacity="0.4"/>
<circle cx="176" cy="90" r="2" fill="white" fill-opacity="0.4"/>
<circle cx="184" cy="90" r="2" fill="white" fill-opacity="0.4"/>
<path d="M194.996 32.7695V33.6953H185.387V32.7695H189.617V30.6133H186.488V25.2109H187.602V27.0156H192.758V25.2109H193.859V30.6133H190.719V32.7695H194.996ZM187.602 29.7109H192.758V27.918H187.602V29.7109ZM204.266 29.4766V30.3906H196.953V25.4336H204.172V26.3477H198.055V29.4766H204.266ZM195.758 33.6133V32.6875H205.367V33.6133H195.758ZM215.152 24.4961V34.9961H214.098V24.4961H215.152ZM206.094 31.9609C208.32 30.6367 209.387 28.873 209.58 26.7109H206.586V25.7969H210.688C210.682 26.8223 210.541 27.8008 210.219 28.7148H211.883V24.7656H212.938V34.4805H211.883V29.6055H209.832C209.211 30.8242 208.209 31.8906 206.727 32.7578L206.094 31.9609ZM225.207 24.5078V30.4844H224.094V24.5078H225.207ZM216.711 27.5195C216.717 26.0371 217.9 25.0293 219.512 25.0352C221.117 25.0293 222.301 26.0371 222.301 27.5195C222.301 28.9609 221.117 29.9805 219.512 29.9805C217.9 29.9805 216.717 28.9609 216.711 27.5195ZM217.801 27.5195C217.795 28.4219 218.516 29.043 219.512 29.043C220.496 29.043 221.211 28.4219 221.211 27.5195C221.211 26.5879 220.496 25.9668 219.512 25.9727C218.516 25.9668 217.795 26.5879 217.801 27.5195ZM218.305 34.8672V31.0117H225.207V34.8672H218.305ZM219.406 33.9648H224.117V31.9023H219.406V33.9648ZM238.508 24.5078V32.2422H237.395V24.5078H238.508ZM229.977 30.1445C231.6 29.6348 232.596 28.3398 232.59 26.9453V26.7344H230.258V25.8438H232.59V24.543H233.715V25.8438H236.023V26.7344H233.703V26.9453C233.697 28.2637 234.717 29.4707 236.34 29.957L235.801 30.8359C234.564 30.4551 233.645 29.6641 233.17 28.6504C232.701 29.7461 231.781 30.6133 230.527 31.0117L229.977 30.1445ZM231.641 34.7734V31.5273H232.766V33.8711H238.824V34.7734H231.641ZM248.527 25.1523V26.0781C248.527 27.0742 248.527 28.1582 248.234 29.6523H249.746V30.5664H245.492V35.0078H244.367V30.5664H240.172V29.6523H247.109C247.42 28.1523 247.42 27.0566 247.426 26.0781V26.0664H241.344V25.1523H248.527ZM257.152 26.6641C257.152 27.8594 258.102 28.9844 259.707 29.4297L259.203 30.2852C257.979 29.9395 257.082 29.2012 256.613 28.2578C256.15 29.3008 255.23 30.1035 253.988 30.4844L253.449 29.6055C255.055 29.1484 256.051 27.9707 256.051 26.6641V26.5469H253.766V25.6562H256.051V24.4492H257.164V25.6562H259.438V26.5469H257.152V26.6641ZM254.492 34.0938C256.256 33.8418 257.592 32.9805 257.791 31.9727H254.914V31.082H261.887V31.9727H259.016C259.209 32.957 260.562 33.8418 262.32 34.1055L261.91 34.9609C260.311 34.7148 259.004 33.9824 258.395 32.9863C257.791 33.9824 256.49 34.6973 254.902 34.9492L254.492 34.0938ZM260.609 30.5547V24.4961H261.723V27.0156H263.246V27.9414H261.723V30.5547H260.609ZM268.625 24.6719C270.992 24.666 272.369 25.3047 272.375 26.4766C272.369 27.6543 270.992 28.293 268.625 28.293C266.258 28.293 264.869 27.6543 264.875 26.4766C264.869 25.3047 266.258 24.666 268.625 24.6719ZM263.844 29.8281V28.9375H273.418V29.8281H263.844ZM264.992 31.4688V30.6367H272.211V33.0977H266.094V34.0352H272.504V34.8906H265.004V32.2891H271.109V31.4688H264.992ZM266.035 26.4766C266.029 27.127 266.955 27.4609 268.625 27.4609C270.307 27.4609 271.232 27.127 271.227 26.4766C271.232 25.8555 270.307 25.4922 268.625 25.4922C266.955 25.4922 266.029 25.8555 266.035 26.4766ZM284.129 24.707V28.7148H285.242V24.4961H286.297V34.9961H285.242V29.6289H284.129V34.4922H283.098V24.707H284.129ZM277.414 32.3242V25.7969H279.688V26.7109H278.434V31.375C278.803 31.3574 279.236 31.3047 279.723 31.1875L279.816 32.125C278.973 32.3066 278.328 32.3242 277.848 32.3242H277.414ZM280.121 32.3242V25.7969H282.453V26.7109H281.129V31.3809C281.574 31.3691 282.078 31.3164 282.629 31.1641L282.723 32.1016C281.879 32.3125 281.188 32.3242 280.566 32.3242H280.121Z" fill="white"/>
<path d="M203.208 64.264V69.16H186.28V64.264H192.392V61.608H186.664V44.584H191.624V48.136H198.312V44.584H200.808C201.491 44.584 202.077 44.8293 202.568 45.32C203.059 45.8107 203.304 46.3973 203.304 47.08V61.608H197.288V64.264H203.208ZM198.312 56.648V53.096H191.624V56.648H198.312ZM222.312 64.264V69.16H205.384V64.264H222.312ZM205.544 61.608V51.592C205.544 50.888 205.779 50.312 206.248 49.864C206.696 49.3947 207.261 49.16 207.944 49.16H222.28V53.992H211.592C211.208 53.992 210.909 54.12 210.696 54.376C210.504 54.632 210.397 54.9733 210.376 55.4C210.397 55.7627 210.504 56.0827 210.696 56.36C210.909 56.6373 211.208 56.776 211.592 56.776H222.28V61.608H205.544ZM225.032 49.896C225.544 49.4267 226.12 49.192 226.76 49.192H237.448V54.504H239.016V49.224H243.432V64.872H239.016V59.496H237.448V64.84H224.328V51.624C224.328 50.984 224.563 50.408 225.032 49.896ZM245.32 49.224H249.736V64.872H245.32V49.224ZM229.192 58.76C229.192 59.5707 229.597 59.976 230.408 59.976H232.52V54.056H230.408C229.597 54.056 229.192 54.4613 229.192 55.272V58.76ZM275.222 64.808H270.326V49.16H275.222V64.808ZM258.646 64.904C257.558 64.904 256.534 64.7013 255.574 64.296C254.636 63.8693 253.814 63.304 253.11 62.6C252.406 61.896 251.841 61.0747 251.414 60.136C251.009 59.176 250.806 58.152 250.806 57.064C250.806 55.976 251.009 54.952 251.414 53.992C251.841 53.032 252.406 52.2 253.11 51.496C253.814 50.792 254.636 50.2373 255.574 49.832C256.534 49.4053 257.558 49.192 258.646 49.192C259.734 49.192 260.758 49.4053 261.718 49.832C262.678 50.2373 263.51 50.792 264.214 51.496C264.918 52.2 265.473 53.032 265.878 53.992C266.305 54.952 266.518 55.976 266.518 57.064C266.518 58.152 266.305 59.176 265.878 60.136C265.473 61.0747 264.918 61.896 264.214 62.6C263.51 63.304 262.678 63.8693 261.718 64.296C260.758 64.7013 259.734 64.904 258.646 64.904ZM258.646 54.728C258.006 54.728 257.462 54.952 257.014 55.4C256.566 55.848 256.342 56.4027 256.342 57.064C256.342 57.704 256.566 58.248 257.014 58.696C257.462 59.144 258.006 59.368 258.646 59.368C259.308 59.368 259.862 59.144 260.31 58.696C260.758 58.248 260.982 57.704 260.982 57.064C260.982 56.4027 260.758 55.848 260.31 55.4C259.862 54.952 259.308 54.728 258.646 54.728ZM277.865 43.4C278.334 42.9307 278.91 42.696 279.593 42.696H294.025V47.592H283.273C282.846 47.592 282.537 47.784 282.345 48.168C282.153 48.552 282.057 48.9573 282.057 49.384V49.896H293.289V54.792H282.057V55.88C282.057 56.6907 282.462 57.096 283.273 57.096H294.025V61.992H277.161V45.128C277.161 44.4453 277.396 43.8693 277.865 43.4ZM277.097 69.128V64.232H294.025V69.128H277.097Z" fill="white"/>
</g>
<defs>
<clipPath id="clip0_391_728">
<rect width="335" height="100" rx="16" fill="white"/>
</clipPath>
<clipPath id="clip1_391_728">
<rect width="65" height="74.3889" fill="white" transform="translate(73 16.8232) rotate(-15)"/>
</clipPath>
<clipPath id="clip2_391_728">
<rect width="65" height="74.3889" fill="white" transform="translate(55.5192 28.1443)"/>
</clipPath>
<clipPath id="clip3_391_728">
<rect width="65" height="74.3889" fill="white" transform="translate(26.2532 6) rotate(15)"/>
</clipPath>
</defs>
</svg>
