<svg width="335" height="100" viewBox="0 0 335 100" fill="none" xmlns="http://www.w3.org/2000/svg">
<rect width="335" height="100" rx="16" fill="#6F8BF8"/>
<path d="M111.309 57V42.8594H116.719C119.785 42.8594 121.299 44.4219 121.309 46.5312C121.299 48.25 120.215 49.207 118.828 49.5391V49.6758C120.332 49.7539 121.855 51.0039 121.855 53.1523C121.855 55.3496 120.264 57 117.031 57H111.309ZM113.848 54.8711H116.641C118.496 54.8711 119.268 54.0801 119.277 52.957C119.268 51.6875 118.281 50.7207 116.699 50.7109H113.848V54.8711ZM113.848 48.875H116.406C117.744 48.875 118.76 48.1035 118.77 46.8438C118.76 45.7598 117.979 44.9688 116.465 44.9688H113.848V48.875ZM123.32 54.0117C123.32 51.6289 125.303 50.9355 127.266 50.8086C128.008 50.75 129.521 50.6816 129.99 50.6621L129.98 49.8125C129.98 48.7578 129.307 48.1523 128.066 48.1523C126.953 48.1523 126.27 48.6602 126.074 49.4219H123.672C123.848 47.6152 125.469 46.2578 128.125 46.2578C130.137 46.2578 132.461 47.0879 132.461 49.9102V57H130.078V55.5352H130C129.531 56.4336 128.545 57.2148 126.875 57.2148C124.854 57.2148 123.32 56.1113 123.32 54.0117ZM125.723 53.9922C125.723 54.9102 126.475 55.3789 127.52 55.3789C129.033 55.3789 130 54.3828 130 53.1914L129.99 52.3223C129.541 52.3418 128.154 52.4297 127.656 52.4688C126.475 52.5664 125.723 53.0645 125.723 53.9922ZM137.305 50.7891V57H134.805V46.3945H137.188V48.1914H137.324C137.803 47.0098 138.887 46.2578 140.469 46.2578C142.666 46.2578 144.111 47.7031 144.102 50.2422V57H141.621V50.6328C141.621 49.207 140.85 48.3574 139.551 48.3672C138.232 48.3574 137.305 49.2461 137.305 50.7891ZM148.984 50.7891V57H146.484V46.3945H148.867V48.1914H149.004C149.482 47.0098 150.566 46.2578 152.148 46.2578C154.346 46.2578 155.791 47.7031 155.781 50.2422V57H153.301V50.6328C153.301 49.207 152.529 48.3574 151.23 48.3672C149.912 48.3574 148.984 49.2461 148.984 50.7891ZM162.871 57.2148C159.678 57.2148 157.715 55.0859 157.715 51.7656C157.715 48.4844 159.707 46.2578 162.734 46.2578C165.332 46.2578 167.578 47.8887 167.578 51.6094V52.3906H160.176C160.215 54.1973 161.279 55.2715 162.891 55.2617C163.984 55.2715 164.717 54.8027 165.039 54.168H167.48C167.031 56.0039 165.332 57.2148 162.871 57.2148ZM160.186 50.6914H165.195C165.186 49.2461 164.209 48.1914 162.773 48.1914C161.279 48.1914 160.273 49.3438 160.186 50.6914ZM169.512 57V46.3945H171.934V48.1523H172.051C172.432 46.9316 173.447 46.2383 174.668 46.2383C174.941 46.2383 175.332 46.2676 175.566 46.2969V48.6016C175.342 48.5234 174.824 48.4551 174.414 48.4453C173.027 48.4551 172.012 49.4121 172.012 50.75V57H169.512ZM183.711 57H180.996L185.977 42.8594H189.102L194.102 57H191.387L190.205 53.5039H184.883L183.711 57ZM185.566 51.4531H189.521L187.598 45.75H187.48L185.566 51.4531ZM195.664 57V46.3945H198.086V48.1523H198.203C198.584 46.9316 199.6 46.2383 200.82 46.2383C201.094 46.2383 201.484 46.2676 201.719 46.2969V48.6016C201.494 48.5234 200.977 48.4551 200.566 48.4453C199.18 48.4551 198.164 49.4121 198.164 50.75V57H195.664ZM207.559 57.2148C204.365 57.2148 202.402 55.0859 202.402 51.7656C202.402 48.4844 204.395 46.2578 207.422 46.2578C210.02 46.2578 212.266 47.8887 212.266 51.6094V52.3906H204.863C204.902 54.1973 205.967 55.2715 207.578 55.2617C208.672 55.2715 209.404 54.8027 209.727 54.168H212.168C211.719 56.0039 210.02 57.2148 207.559 57.2148ZM204.873 50.6914H209.883C209.873 49.2461 208.896 48.1914 207.461 48.1914C205.967 48.1914 204.961 49.3438 204.873 50.6914ZM213.711 54.0117C213.711 51.6289 215.693 50.9355 217.656 50.8086C218.398 50.75 219.912 50.6816 220.381 50.6621L220.371 49.8125C220.371 48.7578 219.697 48.1523 218.457 48.1523C217.344 48.1523 216.66 48.6602 216.465 49.4219H214.062C214.238 47.6152 215.859 46.2578 218.516 46.2578C220.527 46.2578 222.852 47.0879 222.852 49.9102V57H220.469V55.5352H220.391C219.922 56.4336 218.936 57.2148 217.266 57.2148C215.244 57.2148 213.711 56.1113 213.711 54.0117ZM216.113 53.9922C216.113 54.9102 216.865 55.3789 217.91 55.3789C219.424 55.3789 220.391 54.3828 220.391 53.1914L220.381 52.3223C219.932 52.3418 218.545 52.4297 218.047 52.4688C216.865 52.5664 216.113 53.0645 216.113 53.9922Z" fill="#A0A0A0"/>
</svg>
