<svg width="32" height="32" viewBox="0 0 32 32" fill="none" xmlns="http://www.w3.org/2000/svg">
<rect x="0.5" y="0.5" width="31" height="31" rx="15.5" fill="white"/>
<rect x="0.5" y="0.5" width="31" height="31" rx="15.5" stroke="#DEE1E6"/>
<path d="M17.6645 9.33325C17.9652 9.33325 18.2602 9.41457 18.5184 9.56862C18.7766 9.72266 18.9883 9.94367 19.1312 10.2083L19.5362 10.9583C19.679 11.2228 19.8907 11.4438 20.1489 11.5979C20.4071 11.7519 20.7022 11.8333 21.0028 11.8333H22.667C23.109 11.8333 23.5329 12.0088 23.8455 12.3214C24.1581 12.634 24.3337 13.0579 24.3337 13.4999V20.9999C24.3337 21.4419 24.1581 21.8659 23.8455 22.1784C23.5329 22.491 23.109 22.6666 22.667 22.6666H9.33366C8.89163 22.6666 8.46771 22.491 8.15515 22.1784C7.84259 21.8659 7.66699 21.4419 7.66699 20.9999V13.4999C7.66699 13.0579 7.84259 12.634 8.15515 12.3214C8.46771 12.0088 8.89163 11.8333 9.33366 11.8333H10.9978C11.2982 11.8333 11.5929 11.7521 11.851 11.5984C12.109 11.4447 12.3207 11.2241 12.4637 10.9599L12.8712 10.2066C13.0141 9.94244 13.2258 9.72184 13.4838 9.56811C13.7419 9.41438 14.0366 9.33324 14.337 9.33325H17.6645Z" stroke="#767676" stroke-width="1.5" stroke-linecap="round" stroke-linejoin="round"/>
<path d="M16 19.3333C17.3807 19.3333 18.5 18.214 18.5 16.8333C18.5 15.4525 17.3807 14.3333 16 14.3333C14.6193 14.3333 13.5 15.4525 13.5 16.8333C13.5 18.214 14.6193 19.3333 16 19.3333Z" stroke="#767676" stroke-width="1.5" stroke-linecap="round" stroke-linejoin="round"/>
</svg>
