<svg width="120" height="110" viewBox="0 0 120 110" fill="none" xmlns="http://www.w3.org/2000/svg">
<rect width="120" height="50" rx="12" fill="#E7E9EE"/>
<path d="M25.3027 17.8242H24.1952V11.4902H25.3027V17.8242ZM26.832 15.1582H24.9921V14.2207H26.832V15.1582ZM25.3027 21.8613H18.5937V18.3809H25.3027V21.8613ZM19.6894 20.959H24.2011V19.2598H19.6894V20.959ZM23.3163 13.459H17.0644V12.5566H23.3163V13.459ZM20.1933 13.9102C20.6972 13.9102 21.1405 13.9883 21.5234 14.1445C21.9062 14.2969 22.205 14.5156 22.4198 14.8008C22.6347 15.0859 22.7421 15.4141 22.7421 15.7852C22.7421 16.1602 22.6347 16.4902 22.4198 16.7754C22.205 17.0605 21.9062 17.2812 21.5234 17.4375C21.1405 17.5898 20.6972 17.666 20.1933 17.666C19.6894 17.666 19.2441 17.5898 18.8573 17.4375C18.4706 17.2812 18.1698 17.0605 17.955 16.7754C17.7441 16.4902 17.6386 16.1602 17.6386 15.7852C17.6386 15.4141 17.7441 15.0859 17.955 14.8008C18.1698 14.5156 18.4706 14.2969 18.8573 14.1445C19.2441 13.9883 19.6894 13.9102 20.1933 13.9102ZM20.1933 14.7598C19.9003 14.7598 19.6405 14.8008 19.414 14.8828C19.1874 14.9648 19.0136 15.084 18.8925 15.2402C18.7714 15.3926 18.7109 15.5742 18.7109 15.7852C18.7109 16 18.7714 16.1855 18.8925 16.3418C19.0136 16.4941 19.1855 16.6133 19.4081 16.6992C19.6347 16.7812 19.8964 16.8262 20.1933 16.834C20.4941 16.8262 20.7558 16.7812 20.9784 16.6992C21.205 16.6133 21.3808 16.4941 21.5058 16.3418C21.6308 16.1855 21.6933 16 21.6933 15.7852C21.6933 15.5742 21.6288 15.3926 21.4999 15.2402C21.371 15.084 21.1933 14.9648 20.9667 14.8828C20.7441 14.8008 20.4863 14.7598 20.1933 14.7598ZM20.7499 13.0254H19.6425V11.4141H20.7499V13.0254ZM29.7853 12.7441C29.7853 13.623 29.7365 14.4473 29.6388 15.2168C29.5412 15.9824 29.3634 16.7383 29.1056 17.4844C28.8478 18.2305 28.4845 18.9277 28.0158 19.5762L27.1427 19.0898C27.5959 18.4961 27.9435 17.8672 28.1857 17.2031C28.4318 16.5391 28.6017 15.8574 28.6955 15.1582C28.7892 14.4551 28.8361 13.6797 28.8361 12.832V12.7441H29.7853ZM29.3986 13.6523H27.4005V12.7441H29.3986V13.6523ZM32.1173 12.7441C32.1173 13.7246 32.0802 14.6191 32.006 15.4277C31.9318 16.2363 31.7658 17.0586 31.508 17.8945C31.2502 18.7305 30.8693 19.5039 30.3654 20.2148L29.5099 19.7168C29.9904 19.0645 30.3498 18.3594 30.588 17.6016C30.8302 16.8438 30.9865 16.0957 31.0568 15.3574C31.131 14.6191 31.1681 13.7773 31.1681 12.832V12.7441H32.1173ZM31.7658 13.6523H30.1076V12.7441H31.7658V13.6523ZM36.2716 21.9902H35.1994V11.4902H36.2716V21.9902ZM33.4181 16.4648H31.6193V15.5625H33.4181V16.4648ZM34.2619 21.4863H33.213V11.7598H34.2619V21.4863ZM45.4945 21.9902H44.393V11.4902H45.4945V21.9902ZM47.1879 16.6699H45.2426V15.75H47.1879V16.6699ZM43.4789 14.0449H37.2563V13.1367H43.4789V14.0449ZM40.4145 14.8242C40.9145 14.8242 41.3617 14.9277 41.7563 15.1348C42.1547 15.3418 42.4652 15.6309 42.6879 16.002C42.9145 16.373 43.0277 16.793 43.0277 17.2617C43.0277 17.7344 42.9145 18.1562 42.6879 18.5273C42.4652 18.8984 42.1547 19.1875 41.7563 19.3945C41.3617 19.6016 40.9145 19.7051 40.4145 19.7051C39.9105 19.7051 39.4613 19.6016 39.0668 19.3945C38.6723 19.1875 38.3617 18.8984 38.1352 18.5273C37.9125 18.1562 37.8012 17.7344 37.8012 17.2617C37.8012 16.793 37.9125 16.373 38.1352 16.002C38.3617 15.6309 38.6723 15.3418 39.0668 15.1348C39.4613 14.9277 39.9105 14.8242 40.4145 14.8242ZM40.4145 15.7441C40.1176 15.7441 39.852 15.8086 39.6176 15.9375C39.3832 16.0625 39.1977 16.2402 39.0609 16.4707C38.9281 16.7012 38.8617 16.9648 38.8617 17.2617C38.8617 17.5625 38.9281 17.8262 39.0609 18.0527C39.1977 18.2793 39.3832 18.457 39.6176 18.5859C39.852 18.7109 40.1176 18.7734 40.4145 18.7734C40.7113 18.7734 40.977 18.7109 41.2113 18.5859C41.4457 18.457 41.6293 18.2793 41.7621 18.0527C41.8949 17.8262 41.9613 17.5625 41.9613 17.2617C41.9613 16.9648 41.8949 16.7012 41.7621 16.4707C41.6293 16.2402 41.4457 16.0625 41.2113 15.9375C40.977 15.8086 40.7113 15.7441 40.4145 15.7441ZM40.9594 13.5234H39.852V11.6309H40.9594V13.5234ZM55.4088 14.1973H52.5377V13.2773H55.4088V14.1973ZM55.444 16.4414H52.5377V15.5391H55.444V16.4414ZM52.8014 17.3613H47.9205V12.3926H52.8014V17.3613ZM49.028 16.4824H51.7057V13.2949H49.028V16.4824ZM56.1998 19.1602H55.0866V11.502H56.1998V19.1602ZM56.4342 21.7852H49.3385V20.8652H56.4342V21.7852ZM50.4635 21.2988H49.3385V18.4629H50.4635V21.2988ZM61.6085 18.5098C62.6359 18.5098 63.4933 18.4863 64.1808 18.4395C64.8683 18.3926 65.5597 18.3047 66.255 18.1758L66.3839 19.084C65.6613 19.2246 64.9484 19.3203 64.2452 19.3711C63.5421 19.418 62.6632 19.4414 61.6085 19.4414H60.7882V18.5098H61.6085ZM65.5988 13.3887H61.9073V18.8496H60.7882V12.4688H65.5988V13.3887ZM69.0382 22.0195H67.9191V11.4902H69.0382V22.0195ZM68.3937 16.166H65.007V15.252H68.3937V16.166ZM82.6617 16.7988H73.0875V15.8965H82.6617V16.7988ZM81.4488 20.1152H75.3434V21.2988H74.2477V19.3066H80.359V18.4688H74.2301V17.6367H81.4488V20.1152ZM81.7535 21.8906H74.2477V21.0293H81.7535V21.8906ZM78.1969 12.5625C78.1969 13.0781 78.0094 13.541 77.6344 13.9512C77.2633 14.3613 76.7555 14.6973 76.1109 14.959C75.4664 15.2168 74.7418 15.3828 73.9371 15.457L73.5738 14.5898C74.2574 14.5391 74.8785 14.418 75.4371 14.2266C75.9957 14.0312 76.4332 13.7891 76.7496 13.5C77.0699 13.207 77.2301 12.8945 77.2301 12.5625V12.2402H78.1969V12.5625ZM78.5191 12.5625C78.5191 12.8945 78.6773 13.207 78.9938 13.5C79.3141 13.7891 79.7535 14.0312 80.3121 14.2266C80.8746 14.418 81.4977 14.5391 82.1813 14.5898L81.8238 15.457C81.0152 15.3828 80.2867 15.2168 79.6383 14.959C78.9938 14.6973 78.484 14.3633 78.109 13.957C77.7379 13.5469 77.5523 13.082 77.5523 12.5625V12.2402H78.5191V12.5625ZM81.8063 12.7734H73.9605V11.877H81.8063V12.7734ZM91.9608 21.9902H90.8592V11.4902H91.9608V21.9902ZM91.369 16.5703H88.4979V15.6562H91.369V16.5703ZM88.5331 12.6211C88.5331 13.6836 88.3807 14.666 88.076 15.5684C87.7713 16.4668 87.2674 17.2949 86.5643 18.0527C85.8612 18.8105 84.9334 19.4766 83.7811 20.0508L83.1952 19.1719C84.1952 18.6836 85.0077 18.123 85.6327 17.4902C86.2616 16.8535 86.7186 16.1484 87.0038 15.375C87.2928 14.5977 87.4373 13.7402 87.4373 12.8027V12.6211H88.5331ZM88.0174 13.5117H83.6639V12.6211H88.0174V13.5117ZM102.947 17.6602H93.338V16.7578H102.947V17.6602ZM98.7872 19.6992H97.6622V17.3379H98.7872V19.6992ZM101.881 21.7852H94.545V20.8535H101.881V21.7852ZM95.6641 21.1172H94.545V18.6855H95.6641V21.1172ZM98.1368 11.7363C98.8868 11.7363 99.5411 11.8242 100.1 12C100.662 12.1758 101.096 12.4238 101.4 12.7441C101.709 13.0645 101.863 13.4414 101.863 13.875C101.863 14.3047 101.709 14.6797 101.4 15C101.096 15.3164 100.662 15.5605 100.1 15.7324C99.5411 15.9043 98.8868 15.9902 98.1368 15.9902C97.3907 15.9902 96.7345 15.9043 96.168 15.7324C95.6055 15.5605 95.168 15.3164 94.8555 15C94.547 14.6797 94.3927 14.3047 94.3927 13.875C94.3927 13.4414 94.547 13.0645 94.8555 12.7441C95.168 12.4238 95.6055 12.1758 96.168 12C96.7345 11.8242 97.3907 11.7363 98.1368 11.7363ZM98.1368 12.6328C97.629 12.6328 97.1817 12.6836 96.795 12.7852C96.4083 12.8828 96.1095 13.0254 95.8985 13.2129C95.6915 13.3965 95.588 13.6172 95.588 13.875C95.588 14.125 95.6915 14.3418 95.8985 14.5254C96.1095 14.7051 96.4083 14.8457 96.795 14.9473C97.1817 15.0449 97.629 15.0938 98.1368 15.0938C98.6485 15.0938 99.0958 15.0449 99.4786 14.9473C99.8614 14.8457 100.156 14.7051 100.363 14.5254C100.574 14.3418 100.68 14.125 100.68 13.875C100.68 13.6172 100.574 13.3965 100.363 13.2129C100.156 13.0254 99.8614 12.8828 99.4786 12.7852C99.0958 12.6836 98.6485 12.6328 98.1368 12.6328ZM31.5518 37.6895H21.9424V36.7754H31.5518V37.6895ZM27.2686 37.0332H26.1787V34.3262H27.2686V37.0332ZM24.1573 31.0215H29.3135V29.2109H30.4092V34.6191H23.0381V29.2109H24.1573V31.0215ZM29.3135 33.7168V31.918H24.1573V33.7168H29.3135ZM40.5813 34.3906H33.2688V33.4824H40.5813V34.3906ZM41.6829 37.6133H32.0735V36.6875H41.6829V37.6133ZM40.4817 30.3477H34.3704V33.875H33.2688V29.4395H40.4817V30.3477ZM51.228 38.9902H50.1734V28.4902H51.228V38.9902ZM48.2339 33.6113H45.6734V32.7148H48.2339V33.6113ZM49.0132 38.4863H47.9585V28.7598H49.0132V38.4863ZM46.7573 29.8027C46.7573 30.7754 46.6245 31.6836 46.3589 32.5273C46.0972 33.3672 45.6734 34.1445 45.0874 34.8594C44.5015 35.5742 43.7417 36.2051 42.8081 36.752L42.1695 35.9551C42.982 35.4746 43.648 34.9336 44.1675 34.332C44.687 33.7266 45.0698 33.0664 45.3159 32.3516C45.562 31.6328 45.6851 30.8535 45.6851 30.0137V29.8027H46.7573ZM46.0777 30.7109H42.6616V29.8027H46.0777V30.7109ZM61.0427 34.4785H59.9353V28.502H61.0427V34.4785ZM61.0427 38.8613H54.1462V35.0176H61.0427V38.8613ZM55.242 37.959H59.9529V35.9082H55.242V37.959ZM55.3474 29.0293C55.8787 29.0293 56.3552 29.1348 56.7771 29.3457C57.2029 29.5527 57.5369 29.8457 57.7791 30.2246C58.0212 30.5996 58.1423 31.0293 58.1423 31.5137C58.1423 31.9863 58.0212 32.4102 57.7791 32.7852C57.5369 33.1602 57.2029 33.4531 56.7771 33.6641C56.3552 33.875 55.8787 33.9805 55.3474 33.9805C54.8162 33.9805 54.3377 33.875 53.9119 33.6641C53.49 33.4531 53.158 33.1602 52.9158 32.7852C52.6736 32.4102 52.5525 31.9863 52.5525 31.5137C52.5525 31.0293 52.6736 30.5996 52.9158 30.2246C53.158 29.8457 53.49 29.5527 53.9119 29.3457C54.3377 29.1348 54.8162 29.0293 55.3474 29.0293ZM55.3474 29.9727C55.0193 29.9688 54.7244 30.0312 54.4627 30.1602C54.2048 30.2852 54.0037 30.4668 53.8591 30.7051C53.7146 30.9395 53.6423 31.209 53.6423 31.5137C53.6423 31.8066 53.7146 32.0703 53.8591 32.3047C54.0037 32.5352 54.2048 32.7148 54.4627 32.8438C54.7244 32.9727 55.0193 33.0371 55.3474 33.0371C55.6755 33.0371 55.9666 32.9727 56.2205 32.8438C56.4783 32.7148 56.6795 32.5352 56.824 32.3047C56.9724 32.0703 57.0466 31.8066 57.0466 31.5137C57.0466 31.209 56.9744 30.9395 56.8298 30.7051C56.6853 30.4668 56.4841 30.2852 56.2263 30.1602C55.9685 30.0312 55.6755 29.9688 55.3474 29.9727ZM73.3362 39.0195H72.2346V28.4902H73.3362V39.0195ZM75.0295 33.5293H73.0842V32.5977H75.0295V33.5293ZM66.4455 35.5684C67.4924 35.5723 68.383 35.5508 69.1174 35.5039C69.8557 35.4531 70.6018 35.3594 71.3557 35.2227L71.467 36.1309C70.6936 36.2676 69.926 36.3633 69.1643 36.418C68.4065 36.4727 67.5002 36.502 66.4455 36.5059H65.5959V35.5684H66.4455ZM70.3713 33.3008H66.6975V35.9375H65.5959V32.3984H69.2698V30.3477H65.5725V29.4395H70.3713V33.3008ZM83.9888 39.0195H82.8696V28.4902H83.9888V39.0195ZM78.3638 29.2812C78.8872 29.2812 79.354 29.4336 79.7641 29.7383C80.1743 30.043 80.4946 30.4727 80.7251 31.0273C80.9555 31.582 81.0708 32.2285 81.0708 32.9668C81.0708 33.709 80.9555 34.3574 80.7251 34.9121C80.4946 35.4668 80.1743 35.8965 79.7641 36.2012C79.354 36.502 78.8872 36.6523 78.3638 36.6523C77.8403 36.6523 77.3716 36.502 76.9575 36.2012C76.5473 35.8965 76.227 35.4668 75.9966 34.9121C75.7661 34.3574 75.6509 33.709 75.6509 32.9668C75.6509 32.2285 75.7661 31.582 75.9966 31.0273C76.227 30.4727 76.5473 30.043 76.9575 29.7383C77.3716 29.4336 77.8403 29.2812 78.3638 29.2812ZM78.3638 30.2773C78.0434 30.2773 77.7583 30.3867 77.5083 30.6055C77.2583 30.8242 77.0649 31.1367 76.9282 31.543C76.7954 31.9453 76.729 32.4199 76.729 32.9668C76.729 33.5098 76.7954 33.9844 76.9282 34.3906C77.0649 34.7969 77.2583 35.1094 77.5083 35.3281C77.7583 35.543 78.0434 35.6504 78.3638 35.6504C78.6841 35.6504 78.9673 35.543 79.2134 35.3281C79.4634 35.1094 79.6567 34.7969 79.7934 34.3906C79.9302 33.9844 79.9985 33.5098 79.9985 32.9668C79.9985 32.4199 79.9302 31.9453 79.7934 31.543C79.6567 31.1367 79.4653 30.8242 79.2192 30.6055C78.9731 30.3867 78.688 30.2773 78.3638 30.2773ZM95.028 37.6895H85.4187V36.752H95.028V37.6895ZM94.1491 30.4121H86.2331V29.5039H94.1491V30.4121ZM94.1198 34.8125H86.2683V33.9219H94.1198V34.8125ZM88.9343 34.0215H87.8269V30.3301H88.9343V34.0215ZM92.5495 34.0215H91.4538V30.3301H92.5495V34.0215ZM97.3779 35.5625H96.2236L96.1123 29.5156H97.4834L97.3779 35.5625ZM96.7978 38.082C96.6533 38.082 96.5166 38.043 96.3877 37.9648C96.2588 37.8867 96.1572 37.7852 96.083 37.6602C96.0088 37.5312 95.9716 37.3926 95.9716 37.2441C95.9716 37.0996 96.0088 36.9629 96.083 36.834C96.1572 36.7051 96.2588 36.6055 96.3877 36.5352C96.5166 36.4609 96.6533 36.4238 96.7978 36.4238C96.9463 36.4238 97.083 36.4609 97.208 36.5352C97.3369 36.6055 97.4384 36.7051 97.5127 36.834C97.5908 36.9629 97.6298 37.0996 97.6298 37.2441C97.6298 37.3926 97.5908 37.5312 97.5127 37.6602C97.4384 37.7852 97.3369 37.8867 97.208 37.9648C97.083 38.043 96.9463 38.082 96.7978 38.082Z" fill="#95969B"/>
<path d="M58.4948 56.2798L53 50H67L61.5052 56.2798C60.7083 57.1905 59.2917 57.1905 58.4948 56.2798Z" fill="#E7E9EE"/>
<g clip-path="url(#clip0_391_891)">
<path d="M80.9999 90.873C80.9999 85.269 78.8471 82.2639 76.2475 80.6801C76.6943 80.2334 77.1005 79.7461 77.4255 79.2182C78.6034 77.4314 79.1721 75.0761 79.1721 72.0304C79.1721 68.9847 78.1972 66.3451 76.2881 64.5989C74.379 62.8527 71.4951 62.0405 67.3926 62.0405H52.4854C50.617 62.0405 48.9922 62.8933 47.8549 64.1928C47.8143 64.2334 47.733 64.274 47.6518 64.3146L40.7872 71.1776L40.7466 71.2588C40.7466 71.2588 40.7466 71.2588 40.7466 71.2994C39.7311 72.3959 39.0812 73.8578 39.0812 75.4822V103.909C39.0812 107.279 41.8026 110 45.174 110H62.1121C65.8491 110 68.733 108.903 70.6827 106.792C70.6827 106.792 70.7233 106.792 70.764 106.751L78.1566 99.3603C78.1566 99.3603 78.1972 99.3603 78.2378 99.2791C80.1063 97.1268 81.0406 94.3248 81.0406 90.9136L80.9999 90.873Z" fill="#161616"/>
<path d="M71.9014 80.924C73.5261 80.4773 74.8259 79.5433 75.7602 78.122C76.6944 76.7007 77.1818 74.6702 77.1818 72.0712C77.1818 69.4722 76.4507 67.4824 74.9478 66.1423C73.4449 64.7616 70.9671 64.1118 67.4333 64.1118H52.5261C50.2921 64.1118 48.4642 65.9392 48.4642 68.1727V96.5991C48.4642 98.8326 50.2921 100.66 52.5261 100.66H69.4642C72.7137 100.66 75.1103 99.7666 76.6538 98.0205C78.1973 96.2337 78.9691 93.9189 78.9691 90.9951C78.9691 85.391 76.6132 82.1423 71.9014 81.3301V80.924Z" fill="#06E393" stroke="#161616" stroke-width="1.29052" stroke-linecap="round" stroke-linejoin="round"/>
<ellipse cx="3.99989" cy="3.99989" rx="3.99989" ry="3.99989" transform="matrix(-0.984801 0.173688 0.173688 0.984801 70.3645 67.187)" fill="white"/>
<ellipse cx="2.49993" cy="2.49993" rx="2.49993" ry="2.49993" transform="matrix(-0.984801 0.173688 0.173688 0.984801 70.6251 68.6646)" fill="#161616"/>
<ellipse cx="3.99989" cy="3.99989" rx="3.99989" ry="3.99989" transform="matrix(-0.984801 0.173688 0.173688 0.984801 63.5579 68.3872)" fill="white"/>
<ellipse cx="2.49993" cy="2.49993" rx="2.49993" ry="2.49993" transform="matrix(-0.984801 0.173688 0.173688 0.984801 63.8185 69.8643)" fill="#161616"/>
</g>
<defs>
<clipPath id="clip0_391_891">
<rect width="42" height="48" fill="white" transform="translate(39 62)"/>
</clipPath>
</defs>
</svg>
