<svg width="140" height="140" viewBox="0 0 140 140" fill="none" xmlns="http://www.w3.org/2000/svg">
<rect width="140" height="140" rx="28" fill="#06E393"/>
<path d="M27.9665 46.6104C26.1763 36.4577 32.9555 26.7761 43.1082 24.9859C53.2609 23.1957 62.9425 29.9748 64.7327 40.1275L72.0259 81.4894L35.2597 87.9723L27.9665 46.6104Z" fill="black" stroke="#06E393" stroke-width="2.33333"/>
<circle cx="72.0259" cy="81.4893" r="37.3333" transform="rotate(-10 72.0259 81.4893)" fill="black"/>
<path d="M35.2597 87.9722C38.8401 108.278 58.2034 121.836 78.5087 118.255C98.8141 114.675 112.372 95.3118 108.792 75.0064C105.212 54.7011 85.8484 41.1428 65.543 44.7232C60.6674 45.5829 56.1807 47.3526 52.2269 49.8268" stroke="#06E393" stroke-width="3.5" stroke-linecap="round"/>
<path d="M35.2597 87.9723L27.9665 46.6104C26.1763 36.4577 32.9555 26.7761 43.1082 24.9859C53.2609 23.1957 62.9425 29.9748 64.7327 40.1275L65.543 44.7233" stroke="#06E393" stroke-width="3.5"/>
<circle cx="9.33333" cy="9.33333" r="9.33333" transform="matrix(-0.984808 0.173648 0.173648 0.984808 91.4478 55.4543)" fill="white"/>
<circle cx="5.83333" cy="5.83333" r="5.83333" transform="matrix(-0.984808 0.173648 0.173648 0.984808 92.0556 58.901)" fill="black"/>
<circle cx="9.33333" cy="9.33333" r="9.33333" transform="matrix(-0.984808 0.173648 0.173648 0.984808 75.5657 58.2547)" fill="white"/>
<circle cx="5.83333" cy="5.83333" r="5.83333" transform="matrix(-0.984808 0.173648 0.173648 0.984808 76.1735 61.7014)" fill="black"/>
</svg>
