<svg width="166" height="139" viewBox="0 0 166 139" fill="none" xmlns="http://www.w3.org/2000/svg">
<g clip-path="url(#clip0_122_435)">
<path d="M115.5 44.7467C115.5 36.0617 112.168 31.4045 108.145 28.95C108.836 28.2578 109.465 27.5025 109.968 26.6844C111.791 23.9153 112.671 20.265 112.671 15.5449C112.671 10.8248 111.162 6.73407 108.208 4.02788C105.253 1.32168 100.79 0.0629883 94.4408 0.0629883H71.3702C68.4785 0.0629883 65.964 1.38462 64.2038 3.39853C64.141 3.46147 64.0152 3.5244 63.8895 3.58733L53.2657 14.2233L53.2029 14.3492C53.2029 14.3492 53.2029 14.3492 53.2029 14.4121C51.6313 16.1114 50.6255 18.377 50.6255 20.8944V64.9487C50.6255 70.1723 54.8373 74.3889 60.0549 74.3889H86.2686C92.052 74.3889 96.5152 72.6897 99.5326 69.4171C99.5326 69.4171 99.5955 69.4171 99.6584 69.3542L111.099 57.9C111.099 57.9 111.162 57.9 111.225 57.7742C114.117 54.4386 115.563 50.0961 115.563 44.8096L115.5 44.7467Z" fill="#161616"/>
<path d="M101.419 29.3277C103.933 28.6354 105.945 27.1879 107.391 24.9852C108.837 22.7825 109.591 19.6357 109.591 15.6079C109.591 11.5801 108.459 8.49629 106.133 6.41944C103.808 4.27966 99.9729 3.27271 94.5038 3.27271H71.4332C67.9758 3.27271 65.147 6.10477 65.147 9.56618V53.6205C65.147 57.0819 67.9758 59.914 71.4332 59.914H97.647C102.676 59.914 106.385 58.5294 108.774 55.8232C111.162 53.0541 112.357 49.4668 112.357 44.9355C112.357 36.2505 108.711 31.2157 101.419 29.9571V29.3277Z" fill="#06E393" stroke="#161616" stroke-width="2" stroke-linecap="round" stroke-linejoin="round"/>
<ellipse cx="6.19194" cy="6.19726" rx="6.19194" ry="6.19726" transform="matrix(-0.984732 0.174076 0.173301 0.984869 99.0426 8.03833)" fill="white"/>
<ellipse cx="3.86996" cy="3.87329" rx="3.86996" ry="3.87329" transform="matrix(-0.984732 0.174076 0.173301 0.984869 99.4449 10.3276)" fill="#161616"/>
<ellipse cx="6.19194" cy="6.19726" rx="6.19194" ry="6.19726" transform="matrix(-0.984732 0.174076 0.173301 0.984869 88.5085 9.89844)" fill="white"/>
<ellipse cx="3.86996" cy="3.87329" rx="3.86996" ry="3.87329" transform="matrix(-0.984732 0.174076 0.173301 0.984869 88.9109 12.1877)" fill="#161616"/>
</g>
<path d="M27.312 121.285V128.629H1.92V121.285H11.088V117.301H2.496V91.7649H9.936V97.0929H19.968V91.7649H23.712C24.736 91.7649 25.616 92.1329 26.352 92.8689C27.088 93.6049 27.456 94.4849 27.456 95.5089V117.301H18.432V121.285H27.312ZM19.968 109.861V104.533H9.936V109.861H19.968ZM55.968 121.285V128.629H30.576V121.285H55.968ZM30.816 117.301V102.277C30.816 101.221 31.168 100.357 31.872 99.6849C32.544 98.9809 33.392 98.6289 34.416 98.6289H55.92V105.877H39.888C39.312 105.877 38.864 106.069 38.544 106.453C38.256 106.837 38.096 107.349 38.064 107.989C38.096 108.533 38.256 109.013 38.544 109.429C38.864 109.845 39.312 110.053 39.888 110.053H55.92V117.301H30.816ZM60.048 99.7329C60.816 99.0289 61.68 98.6769 62.64 98.6769H78.672V106.645H81.024V98.7249H87.648V122.197H81.024V114.133H78.672V122.149H58.992V102.325C58.992 101.365 59.344 100.501 60.048 99.7329ZM90.48 98.7249H97.104V122.197H90.48V98.7249ZM66.288 113.029C66.288 114.245 66.896 114.853 68.112 114.853H71.28V105.973H68.112C66.896 105.973 66.288 106.581 66.288 107.797V113.029ZM135.333 122.101H127.989V98.6289H135.333V122.101ZM110.469 122.245C108.837 122.245 107.301 121.941 105.861 121.333C104.453 120.693 103.221 119.845 102.165 118.789C101.109 117.733 100.261 116.501 99.6214 115.093C99.0134 113.653 98.7094 112.117 98.7094 110.485C98.7094 108.853 99.0134 107.317 99.6214 105.877C100.261 104.437 101.109 103.189 102.165 102.133C103.221 101.077 104.453 100.245 105.861 99.6369C107.301 98.9969 108.837 98.6769 110.469 98.6769C112.101 98.6769 113.637 98.9969 115.077 99.6369C116.517 100.245 117.765 101.077 118.821 102.133C119.877 103.189 120.709 104.437 121.317 105.877C121.957 107.317 122.277 108.853 122.277 110.485C122.277 112.117 121.957 113.653 121.317 115.093C120.709 116.501 119.877 117.733 118.821 118.789C117.765 119.845 116.517 120.693 115.077 121.333C113.637 121.941 112.101 122.245 110.469 122.245ZM110.469 106.981C109.509 106.981 108.693 107.317 108.021 107.989C107.349 108.661 107.013 109.493 107.013 110.485C107.013 111.445 107.349 112.261 108.021 112.933C108.693 113.605 109.509 113.941 110.469 113.941C111.461 113.941 112.293 113.605 112.965 112.933C113.637 112.261 113.973 111.445 113.973 110.485C113.973 109.493 113.637 108.661 112.965 107.989C112.293 107.317 111.461 106.981 110.469 106.981ZM139.298 89.9889C140.002 89.2849 140.866 88.9329 141.89 88.9329H163.538V96.2769H147.41C146.77 96.2769 146.306 96.5649 146.018 97.1409C145.73 97.7169 145.586 98.3249 145.586 98.9649V99.7329H162.434V107.077H145.586V108.709C145.586 109.925 146.194 110.533 147.41 110.533H163.538V117.877H138.242V92.5809C138.242 91.5569 138.594 90.6929 139.298 89.9889ZM138.146 128.581V121.237H163.538V128.581H138.146Z" fill="#161616"/>
<defs>
<clipPath id="clip0_122_435">
<rect width="65" height="74.3889" fill="white" transform="translate(50.5)"/>
</clipPath>
</defs>
</svg>
